<?xml version="1.0" encoding="UTF-8"?>
<svg width="568px" height="48px" viewBox="0 0 568 48" version="1.1" xmlns="http://www.w3.org/2000/svg" xmlns:xlink="http://www.w3.org/1999/xlink">
    <!-- Generator: Sketch 41.2 (35397) - http://www.bohemiancoding.com/sketch -->
    <title>CH</title>
    <desc>Created with Sketch.</desc>
    <defs>
        <linearGradient x1="50%" y1="0%" x2="50%" y2="100%" id="linearGradient-1">
            <stop stop-color="#FFFFFF" offset="0%"></stop>
            <stop stop-color="#FFFFFF" offset="100%"></stop>
        </linearGradient>
    </defs>
    <g id="Page-1" stroke="none" stroke-width="1" fill="none" fill-rule="evenodd">
        <g id="Desktop" transform="translate(-374.000000, -100.000000)" fill="url(#linearGradient-1)">
            <g id="CH" transform="translate(374.000000, 100.000000)">
                <g>
                    <path d="M24.5352816,0.35961039 L9.58644898,0.35961039 C4.3168,0.35961039 0.0278204082,4.71002783 0.0278204082,10.0551623 L0.0278204082,38.0412801 C0.0278204082,43.3887662 4.3168,47.7368321 9.58644898,47.7368321 L24.5352816,47.7368321 C29.8489796,47.7368321 34.1704163,43.3887662 34.1704163,38.0412801 L34.1704163,32.2469944 C34.1704163,31.6261781 33.6742857,31.1229406 33.0645551,31.1229406 L27.8992327,31.1229406 C27.2871837,31.1229406 26.7910531,31.6261781 26.7910531,32.2469944 L26.7910531,37.1688451 C26.7910531,39.0007236 25.288751,40.4892718 23.4386939,40.4892718 L10.8383673,40.4892718 C8.99062857,40.4892718 7.48600816,39.0007236 7.48600816,37.1688451 L7.48600816,10.929949 C7.48600816,9.0980705 8.99062857,7.60717069 10.8383673,7.60717069 L23.4386939,7.60717069 C25.288751,7.60717069 26.7910531,9.0980705 26.7910531,10.929949 L26.7910531,16.0093553 C26.7910531,16.6301716 27.2871837,17.1310575 27.8992327,17.1310575 L33.0645551,17.1310575 C33.6742857,17.1310575 34.1704163,16.6301716 34.1704163,16.0093553 L34.1704163,10.0551623 C34.1704163,4.71002783 29.8489796,0.35961039 24.5352816,0.35961039" id="Fill-29"></path>
                    <path d="M72.7341388,10.929949 L72.7341388,37.1688451 C72.7341388,39.0007236 71.2642939,40.4892718 69.4582857,40.4892718 L56.939102,40.4892718 C55.1632327,40.4892718 53.663249,38.9701531 53.663249,37.1688451 L53.663249,10.929949 C53.663249,9.128641 55.1632327,7.60717069 56.939102,7.60717069 L69.4582857,7.60717069 C71.2642939,7.60717069 72.7341388,9.0980705 72.7341388,10.929949 Z M70.633698,0.35961039 L55.7660082,0.35961039 C50.4499918,0.35961039 46.1262367,4.71002783 46.1262367,10.0551623 L46.1262367,38.0412801 C46.1262367,43.3887662 50.4499918,47.7368321 55.7660082,47.7368321 L70.633698,47.7368321 C75.9473959,47.7368321 80.271151,43.3887662 80.271151,38.0412801 L80.271151,10.0551623 C80.271151,4.71002783 75.9473959,0.35961039 70.633698,0.35961039 L70.633698,0.35961039 Z" id="Fill-30"></path>
                    <path d="M119.572114,10.929949 L119.572114,37.1241651 C119.572114,38.9560436 118.067494,40.4469434 116.219755,40.4469434 L100.501224,40.4469434 L100.501224,7.60717069 L116.219755,7.60717069 C118.067494,7.60717069 119.572114,9.0980705 119.572114,10.929949 Z M117.471673,0.35961039 L94.0723918,0.35961039 C93.4626612,0.35961039 92.9665306,0.862847866 92.9665306,1.48366419 L92.9665306,46.5704499 C92.9665306,47.1889147 93.4626612,47.6921521 94.0723918,47.6921521 L117.471673,47.6921521 C122.785371,47.6921521 127.109127,43.3440863 127.109127,37.9966002 L127.109127,10.0551623 C127.109127,4.71002783 122.785371,0.35961039 117.471673,0.35961039 L117.471673,0.35961039 Z" id="Fill-31"></path>
                    <path d="M241.824261,0.35961039 L236.503608,0.35961039 C235.891559,0.35961039 235.395429,0.862847866 235.395429,1.48366419 L235.395429,20.124615 L216.324539,20.124615 L216.324539,1.48366419 C216.324539,0.862847866 215.828408,0.35961039 215.218678,0.35961039 L209.895706,0.35961039 C209.285976,0.35961039 208.789845,0.862847866 208.789845,1.48366419 L208.789845,46.5704499 C208.789845,47.1889147 209.285976,47.6921521 209.895706,47.6921521 L215.218678,47.6921521 C215.828408,47.6921521 216.324539,47.1889147 216.324539,46.5704499 L216.324539,27.2922217 L235.395429,27.2922217 L235.395429,46.5704499 C235.395429,47.1889147 235.891559,47.6921521 236.503608,47.6921521 L241.824261,47.6921521 C242.43631,47.6921521 242.932441,47.1889147 242.932441,46.5704499 L242.932441,1.48366419 C242.932441,0.862847866 242.43631,0.35961039 241.824261,0.35961039" id="Fill-32"></path>
                    <path d="M288.662237,40.7220779 L276.428212,40.7220779 L276.428212,1.20617811 C276.428212,0.585361781 275.932082,0.0821243043 275.320033,0.0821243043 L261.048163,0.0821243043 C260.438433,0.0821243043 259.942302,0.585361781 259.942302,1.20617811 L259.942302,6.2056308 C259.942302,6.82644712 260.438433,7.3296846 261.048163,7.3296846 L268.8912,7.3296846 L268.8912,40.7220779 L256.733682,40.7220779 C256.121633,40.7220779 255.625502,41.2253154 255.625502,41.8461317 L255.625502,46.8455844 C255.625502,47.4664007 256.121633,47.9696382 256.733682,47.9696382 L288.662237,47.9696382 C289.274286,47.9696382 289.770416,47.4664007 289.770416,46.8455844 L289.770416,41.8461317 C289.770416,41.2253154 289.274286,40.7220779 288.662237,40.7220779" id="Fill-33"></path>
                    <path d="M309.923984,7.28970779 L325.327216,7.28970779 C327.392882,7.28970779 329.07138,8.99460111 329.07138,11.0875046 L329.07138,20.0564193 C329.07138,22.1516744 327.392882,23.8565677 325.327216,23.8565677 L309.923984,23.8565677 L309.923984,7.28970779 Z M326.970939,0.35961039 L303.571657,0.35961039 C302.961927,0.35961039 302.465796,0.862847866 302.465796,1.48366419 L302.465796,46.5704499 C302.465796,47.1889147 302.961927,47.6921521 303.571657,47.6921521 L308.815804,47.6921521 C309.427853,47.6921521 309.923984,47.1889147 309.923984,46.5704499 L309.923984,30.6267579 L326.970939,30.6267579 C332.284637,30.6267579 336.608392,26.2763404 336.608392,20.9312059 L336.608392,10.0551623 C336.608392,4.71002783 332.284637,0.35961039 326.970939,0.35961039 L326.970939,0.35961039 Z" id="Fill-34"></path>
                    <path d="M373.808914,0.35961039 L358.941224,0.35961039 C353.625208,0.35961039 349.301453,4.71002783 349.301453,10.0551623 L349.301453,15.4543831 C349.301453,19.3556494 351.749649,22.781897 355.401078,23.988256 L374.177535,29.9377458 C375.403951,30.3351623 376.067004,31.7272959 376.067004,32.8372403 L376.067004,37.1241651 C376.067004,38.892551 374.462694,40.4469434 372.63582,40.4469434 L359.956669,40.4469434 C358.171527,40.4469434 356.60431,38.892551 356.60431,37.1241651 L356.60431,32.599731 C356.60431,31.9789147 356.10818,31.4756772 355.496131,31.4756772 L350.409633,31.4756772 C349.797584,31.4756772 349.301453,31.9789147 349.301453,32.599731 L349.301453,37.9966002 C349.301453,43.3440863 353.625208,47.6921521 358.941224,47.6921521 L373.808914,47.6921521 C379.122612,47.6921521 383.446367,43.3440863 383.446367,37.9966002 L383.446367,32.2023145 C383.446367,28.2704777 380.995853,24.8418785 377.35138,23.6707931 L358.572604,17.6366466 C357.329959,17.2368785 356.683135,15.9152922 356.683135,14.8194573 L356.683135,10.929949 C356.683135,9.1592115 358.285127,7.60717069 360.114318,7.60717069 L372.791151,7.60717069 C374.578612,7.60717069 376.145829,9.1592115 376.145829,10.929949 L376.145829,15.4520315 C376.145829,16.0728479 376.639641,16.5760853 377.25169,16.5760853 L382.338188,16.5760853 C382.950237,16.5760853 383.446367,16.0728479 383.446367,15.4520315 L383.446367,10.0551623 C383.446367,4.71002783 379.122612,0.35961039 373.808914,0.35961039" id="Fill-35"></path>
                    <path d="M426.962122,0.35961039 L395.033567,0.35961039 C394.421518,0.35961039 393.925388,0.862847866 393.925388,1.48366419 L393.925388,6.24560761 C393.925388,6.86642393 394.421518,7.36966141 395.033567,7.36966141 L407.267592,7.36966141 L407.267592,46.5704499 C407.267592,47.1889147 407.763722,47.6921521 408.375771,47.6921521 L413.6176,47.6921521 C414.229649,47.6921521 414.72578,47.1889147 414.72578,46.5704499 L414.72578,7.36966141 L426.962122,7.36966141 C427.574171,7.36966141 428.070302,6.86642393 428.070302,6.24560761 L428.070302,1.48366419 C428.070302,0.862847866 427.574171,0.35961039 426.962122,0.35961039" id="Fill-36"></path>
                    <path d="M472.323298,0.35961039 L440.394743,0.35961039 C439.782694,0.35961039 439.286563,0.862847866 439.286563,1.48366419 L439.286563,46.5704499 C439.286563,47.1889147 439.782694,47.6921521 440.394743,47.6921521 L472.323298,47.6921521 C472.935347,47.6921521 473.431478,47.1889147 473.431478,46.5704499 L473.431478,41.488692 C473.431478,40.8702273 472.935347,40.3669898 472.323298,40.3669898 L446.823576,40.3669898 L446.823576,27.134666 L466.532016,27.134666 C467.144065,27.134666 467.640196,26.6314286 467.640196,26.0106122 L467.640196,21.4861781 C467.640196,20.8653618 467.144065,20.3621243 466.532016,20.3621243 L446.823576,20.3621243 L446.823576,7.36966141 L472.323298,7.36966141 C472.935347,7.36966141 473.431478,6.86642393 473.431478,6.24560761 L473.431478,1.48366419 C473.431478,0.862847866 472.935347,0.35961039 472.323298,0.35961039" id="Fill-37"></path>
                    <path d="M172.838922,0.35961039 L140.910367,0.35961039 C140.298318,0.35961039 139.802188,0.862847866 139.802188,1.48366419 L139.802188,46.5704499 C139.802188,47.1889147 140.298318,47.6921521 140.910367,47.6921521 L172.838922,47.6921521 C173.450971,47.6921521 173.947102,47.1889147 173.947102,46.5704499 L173.947102,41.488692 C173.947102,40.8702273 173.450971,40.3669898 172.838922,40.3669898 L147.3392,40.3669898 L147.3392,27.134666 L167.047641,27.134666 C167.65969,27.134666 168.15582,26.6314286 168.15582,26.0106122 L168.15582,21.4861781 C168.15582,20.8653618 167.65969,20.3621243 167.047641,20.3621243 L147.3392,20.3621243 L147.3392,7.36966141 L172.838922,7.36966141 C173.450971,7.36966141 173.947102,6.86642393 173.947102,6.24560761 L173.947102,1.48366419 C173.947102,0.862847866 173.450971,0.35961039 172.838922,0.35961039" id="Fill-38"></path>
                    <path d="M514.209241,11.0875046 L514.209241,19.81891 C514.209241,21.9141651 512.528424,23.6167069 510.462759,23.6167069 L495.138351,23.6167069 L495.138351,7.28970779 L510.462759,7.28970779 C512.528424,7.28970779 514.209241,8.99460111 514.209241,11.0875046 Z M512.1088,0.35961039 L488.709518,0.35961039 C488.097469,0.35961039 487.601339,0.862847866 487.601339,1.48366419 L487.601339,46.5704499 C487.601339,47.1889147 488.097469,47.6921521 488.709518,47.6921521 L494.030171,47.6921521 C494.64222,47.6921521 495.138351,47.1889147 495.138351,46.5704499 L495.138351,30.3892486 L502.060996,30.3892486 L513.625012,47.2124304 C513.831347,47.5134323 514.172147,47.6921521 514.533812,47.6921521 L520.638073,47.6921521 C521.050743,47.6921521 521.428637,47.459346 521.621061,47.0877968 C521.811167,46.7162477 521.781029,46.2670965 521.544555,45.9237662 L510.636637,30.1493878 L513.203069,30.1493878 C513.237845,30.1493878 513.27262,30.1493878 513.305078,30.1446846 C518.039184,29.7002365 521.746253,25.5473516 521.746253,20.6936967 L521.746253,10.0551623 C521.746253,4.71002783 517.422498,0.35961039 512.1088,0.35961039 L512.1088,0.35961039 Z" id="Fill-39"></path>
                    <path d="M561.649992,16.5760853 L566.73649,16.5760853 C567.348539,16.5760853 567.844669,16.0728479 567.844669,15.4520315 L567.844669,10.0551623 C567.844669,4.71002783 563.520914,0.35961039 558.207216,0.35961039 L543.339527,0.35961039 C538.025829,0.35961039 533.702073,4.71002783 533.702073,10.0551623 L533.702073,15.4543831 C533.702073,19.3556494 536.147951,22.781897 539.79938,23.988256 L558.575837,29.9377458 C559.802253,30.3351623 560.465306,31.7272959 560.465306,32.8372403 L560.465306,37.1241651 C560.465306,38.892551 558.860996,40.4469434 557.034122,40.4469434 L544.35729,40.4469434 C542.569829,40.4469434 541.002612,38.892551 541.002612,37.1241651 L541.002612,32.599731 C541.002612,31.9789147 540.506482,31.4756772 539.896751,31.4756772 L534.807935,31.4756772 C534.198204,31.4756772 533.702073,31.9789147 533.702073,32.599731 L533.702073,37.9966002 C533.702073,43.3440863 538.025829,47.6921521 543.339527,47.6921521 L558.207216,47.6921521 C563.520914,47.6921521 567.844669,43.3440863 567.844669,37.9966002 L567.844669,32.2023145 C567.844669,28.2704777 565.396473,24.8418785 561.749682,23.6707931 L542.970906,17.6366466 C541.73058,17.2368785 541.081437,15.9152922 541.081437,14.8194573 L541.081437,10.929949 C541.081437,9.1592115 542.683429,7.60717069 544.51262,7.60717069 L557.189453,7.60717069 C558.976914,7.60717069 560.544131,9.1592115 560.544131,10.929949 L560.544131,15.4520315 C560.544131,16.0728479 561.040261,16.5760853 561.649992,16.5760853" id="Fill-40"></path>
                </g>
            </g>
        </g>
    </g>
</svg>