<svg xmlns="http://www.w3.org/2000/svg" width="300" height="300" viewBox="0 0 300 300"><clipPath id="a"><ellipse cx="150" cy="149.5" rx="144" ry="143.5"/></clipPath><ellipse cx="150" cy="149.5" rx="144" ry="143.5" fill="#EDEDED" stroke="#757575" stroke-width="2"/><g clip-path="url(#a)" fill="none" stroke-width=".4" stroke="#000"><path d="M151.063 238.871l-31.098-2.717c-77.177 69.65-68.122 152.519-73.627 218.892 4.586-2.804 7.219-7.853 14.48-7.582 11.014-53.231 9.009-122.391 39.759-160.683l-23.315 148.21c50.558-1.711 109.252 4.685 151.672-5.136l-27.978-133.536c23.04 26.218 40.512 54.534 68.962 57.373 18.292 1.054 29.593-17.828 38.898-37.372-6.28-5.317-11.719-10.835-13.189-17.294-6.638 14.756-8.891 33.365-22.637 34.528-34.024 2.879-47.184-49.516-69.686-74.823l-22.213-22.655-30.025 2.795z" fill="#BE2323"/><path d="M99.694 256.951c-55.257 64.908-48.377 138.205-53.343 198.078 4.586-2.804 7.213-7.847 14.474-7.576 10.451-50.511 9.189-115.337 35.304-154.551l3.565-35.952z" fill="#D9E2E4"/><path d="M151.063 238.871l-31.098-2.717c-77.177 69.65-68.122 152.519-73.627 218.892 4.586-2.804 7.219-7.853 14.48-7.582 11.014-53.231 9.009-122.391 39.759-160.683l-23.315 148.21c50.558-1.711 109.252 4.685 151.672-5.136l-27.978-133.536c23.04 26.218 40.512 54.534 68.962 57.373 18.292 1.054 29.593-17.828 38.898-37.372-6.28-5.317-11.719-10.835-13.189-17.294-6.638 14.756-8.891 33.365-22.637 34.528-34.024 2.879-47.184-49.516-69.686-74.823l-22.213-22.655-30.025 2.795z"/><path d="M130.761 223.971c-7.859 3.192-10.412 6.761-11.28 13.662-2.323 20.024 13.142 46.888 29.068 73.931 11.218-11.789 24.738-23.956 31.176-51.197 1.13-15.618 3.816-30.826-5.522-37.908l-43.442 1.513z" fill="#D9E2E4"/><path d="M227.337 134.902c17.782 14.958-2.893 32.199-13.989 29.226l-2.7-18.954 10.185-14.674 6.504 4.402z" fill="#F4DFC9"/><path d="M150.643 239.334c-51.582-32.716-62.589-65.045-66.264-99.051-2.637-47.986 13.757-77.332 67.737-79.975 50.53 2.358 71.363 29.601 64.301 80.219-5.964 67.886-37.19 79.133-65.774 98.807z" fill="#F4DFC9"/><path d="M90.579 145.057c12.863-21.313 12.63-34.075 12.394-46.836 19.295 6.368 48.695 9.403 92.525 5.136-4.727 42.343 3.521 29.727 15.816 56.931l-.694-70.905-115.405-8.993-4.635 64.666z" fill="#E8BA89" stroke="none"/><path d="M83.124 132.573c-24.758-5.059-15.196 29.311 4.772 26.373 3.275-10.003 1.203-18.674-4.772-26.373z" fill="#F4DFC9"/><path d="M174.191 222.476l-43.422 1.498c-7.739 3.144-10.347 6.658-11.253 13.353 10.313-8.546 22.303-11.145 34.574-12.754 8.718 1.752 17.439 3.327 26.542 11.043-.638-5.485-2.4-10.073-6.442-13.14z" fill="#6B3C36"/><path d="M89.452 139.743l-5.025.942c3.717 33.865 14.842 66.062 66.228 98.654 25.729-17.709 53.562-28.613 63.221-80.121l-2.62.642c-14.646 19.504-29.291 23.387-43.937 19.902l-31.052 1.113c-36.572 5.582-39.954-26.323-46.815-41.131z" fill="#917C6F"/><path d="M87.026 147.606l-1.203 3.082c4.962 30.231 18.515 59.275 64.81 88.639 25.649-17.654 53.393-28.554 63.135-79.651-14.596 27.995-31.451 47.432-62.484 63.735-30.959-12.818-52.505-40.405-63.013-73.664l-1.245-2.14z" fill="#64554C" stroke="none"/><path d="M136.653 201.67c7.13 8.773 24.614 5.468 30.064 1.223l-13.498-10.15-15.093 3.424-1.473 5.503z" fill="#F4DFC9"/><path d="M89.452 139.743l-5.025.942c3.717 33.865 14.842 66.062 66.228 98.654 25.729-17.709 53.562-28.613 63.221-80.121l-2.62.642c-14.646 19.504-29.291 23.387-43.937 19.902l-31.052 1.113c-36.572 5.582-39.954-26.323-46.815-41.131z"/><path d="M96.226 87.177c3.253 8.15 2.579 18.257 2.256 28.189-.886 8.416-4.056 20.388-12.321 40.295-6.159-27.825-1.039-42.111 3.644-77.303l6.421 8.82z" fill="#82604A"/><path d="M79.488 40.233c-1.664 19.438-5.651 39.157 29.936 54.57 10.395 4.447 59.136 6.757 94.746 2.14-4.422 10.104-4.954 20.521-4.51 31.03 1.676 20.008 6.586 7.895 12.842 36.508 6.224-15.11 2.242-31.222 14.732-28.847 3.003-24.74-1.999-41.712-16.578-49.391 3.197-3.16 3.604-7.138 4.638-10.914h-7.817c1.709-6.196 2.277-12.379-2.491-18.575-5.706 3.401-7.241 8.749-8.332 14.295-7.503-8.677-17.389-15.813-29.807-21.271-15.919-1.945-33.046 4.367-50.336 11.984-17.093-.192-30.547-5.695-37.022-21.528z" fill="#82604A"/><path d="M165.982 181.982c7.771 12.615 25.275 7.184 23.193-7.704 5.664 8.953 13.32 27.929-11.78 30.082-11.904.893-20.653-2.282-26.997-8.56 2.611.929-12.72 8.684-24.297 7.337-18.766-1.43-20.744-27.093-8.615-32.085-10.622 13.671 9.964 25.759 18.309 10.203l30.188.726z" fill="#65391C"/><path d="M137.942 171.282c-17.146 17.105 38.67 23.584 24.849.061" fill="#F4DFC9"/><path d="M102.969 141.933c1.336-5.115 24.989-8.889 26.199-10.15-1.696-.016-2.684-4.648-1.657-7.092.31-.628 2.927-1.762 5.583-.489.895 2.41 1.087 5.52.184 9.722-9.548 4.957-19.332 3.214-30.31 8.01z" fill="#502D16"/><path d="M169.97 127.32c.021 3.115-.431 6.272 1.288 9.233 3.996 2.871 12.374 4.055 23.561 4.158l-.552-4.036c-12.138-1.43-14.142-2.952-21.536-3.302-.785-1.883-1.831-4.025-2.761-6.053z" fill="#502D16"/><path d="M184.472 152.396c-.398 2.891-2.381 4.337-4.968 4.086-2.731-.265-4.923-1.829-4.968-4.086-.048-2.45 2.056-4.757 4.968-4.086 2.673.616 5.275 1.85 4.968 4.086zM126.77 148.44c1.068 3.426-2.002 5.088-4.989 4.799-2.743-.265-4.555-2.235-4.555-4.885s1.956-5.622 4.555-4.713c2.094.733 4.311 2.622 4.989 4.799z" fill="#100A03"/><path d="M141.173 194.139c-3.083 3.48-6.144 6.336-11.28 8.906l7.202-.778c2.359-2.837 3.805-5.061 4.078-8.128zM160.697 193.923c1.898 6.194 2.967 7.567 4.208 9.944.718-.179 13.569.921 12.885.822-2.031 2.477-18.281-8.656-17.094-10.765zM176.657 189.013c.902 3.366 3.188 5.627 5.706 7.704-2.192-2.609-4.741-5.217-4.418-7.826l-1.288.123zM182.302 188.218c.172 2.265 1.472 3.727 2.761 5.197-1.053-2.058-1.767-4.117-1.841-6.175l-.92.978zM184.879 186.201c.273 1.474.88 2.907 2.454 4.219-.721-1.633-1.648-3.226-1.595-5.014l-.859.795z" fill="#341D0E" stroke="none"/><path d="M160.813 49.422c-14.179.013-29.195 5.661-44.323 12.326-11.68-.132-21.646-2.724-28.862-9.416l3.264 5.05 9.878 8.046 13.443 5.864 12.069 3.296 31.739 2.696 13.787 1.84c13.531 3.775 26.796 7.892 36.464 16.649 11.137 8.432 9.649 26.604 11.278 42.371l8.051-3.086c2.713-8.484-1.489-44.701-16.967-48.83 3.197-3.16 3.604-7.138 4.639-10.914h-7.817c1.709-6.196 2.277-12.379-2.491-18.575-5.706 3.4-7.241 8.748-8.332 14.295-7.503-8.677-17.389-15.813-29.807-21.271-1.99-.243-3.987-.344-6.013-.342z" fill="#A0765A" stroke="none"/><path d="M148.491 311.437l-14.995-54.871h36.341c-4.503 20.893-11.752 39.05-21.345 54.871z" fill="#B6C8CB" stroke="none"/><path d="M78.699 40.138c1.917 22.054 8.958 40.704 39.741 43.58M128.158 87.523c10.41 5.238 25.79 6.247 41.997 3.113 9.014-1.743 25.901 6.417 35.923 5.534M81.996 45.672c31.379 49.815 79.881 13.13 126.338 50.325M117.745 60.545c29.722.353 59.286-6.712 89.894 35.106M208.507 94.786c-1.66 26.066 4.911 44.589 3.991 68.656M207.466 94.959c11.985 8.119 10.516 25.055 11.107 40.64M150.52 239.089c-1.691 24.154-3.187 48.178-2.945 71.048M152.974 237.744c-.663 23.338-.967 46.459 1.595 67.869M128.064 274.674c13.327 1.875 28.035 3.176 45.281 3.424M136.04 290.449l31.046.367M133.364 284.153c-.67-15.024-.366-28.432.347-41.159M168.19 218.056c-5.946 6.242-11.985 12.026-17.302 21.4l4.908-3.546 12.394-17.853zM151.072 224.598l-.245 14.735 1.718-.428-1.472-14.307z"/><path d="M156 247.649c5.273-2.715 10.859-5.139 18.714-5.442 1.668 6.644 3.687 12.886.92 24.579-9.64-2.704-15.568-5.203-19.327-7.582l-.307-11.556z" fill="#B02300"/><path d="M146.183 247.588c-7.566-4.646-15.362-6.077-23.254-6.175-1.863 0 .049 20.422 2.516 20.483-.048 1.745 23.775-.859 24.134-2.917l-3.396-11.39z" fill="#B02300"/><path d="M127.392 261.778c-.895-4.959-2.137-9.712-.675-16.08 9.352-.444 17.959 3.071 26.874 4.952 6.097-1.193 12.495-4.039 18.284-3.546 2.218 4.944 1.879 12.435 1.902 19.566l1.963-.061 1.166-9.905-2.086-14.491-8.467 1.651-10.553 3.485-10.492-.061-10.062-4.647-12.823-1.101v10.578l2.516 9.905s1.718.672 2.025.611c.307-.061.429-.856.429-.856v-.001zM124.889 262.106l1.041.303c3.764-6.795 7.358-13.777 13.363-18.115l-4.252-1.816-10.976 17.985.824 1.643z" fill="#DF2C00" stroke="none"/><path d="M135.216 242.739c-4.422 5.444-7.861 11.423-11.02 17.553M142.938 245.852c-3.605 5.408-6.885 10.79-9.111 16.083M156 247.649c5.273-2.715 10.859-5.139 18.714-5.442 1.668 6.644 3.687 12.886.92 24.579-9.64-2.704-15.568-5.203-19.327-7.582l-.307-11.556zM166.627 243.171c-3.808 4.106-6.77 8.481-9.371 12.97M175.217 243.949c-4.414 4.753-8.454 9.805-11.714 15.478M157.516 256.401c6.657 2.573 12.363 5.999 17.875 9.598M145.281 253.807c-3.76 2.607-7.108 4.089-10.412 5.447"/><path d="M137.921 171.274c-17.146 17.105 38.688 23.608 24.868.084h-.773c8.514 18.076-33.991 13.368-23.751-.084h-.344z" fill="#E7BA8B" stroke="none"/><path d="M137.942 171.282c-17.146 17.105 38.67 23.584 24.849.061"/><path d="M146.183 247.588c-7.566-4.646-15.362-6.077-23.254-6.175-1.863 0 .049 20.422 2.516 20.483-.048 1.745 23.775-.859 24.134-2.917l-3.396-11.39z"/><path d="M151.214 240.679c-3.19 1.182-4.359 4.379-5.645 7.459-.283 4.688-.755 9.431 1.657 13.329-.974 2.503 8.074 6.186 9.756.061.564-1.356.882-16.963-.307-16.325-1.477-3.9-3.515-3.892-5.461-4.525v.001z" fill="#B02300"/><path d="M79.488 40.233c-1.664 19.438-5.651 39.157 29.936 54.57 10.395 4.447 59.136 6.757 94.746 2.14-4.422 10.104-4.954 20.521-4.51 31.03 1.676 20.008 6.586 7.895 12.842 36.508 6.224-15.11 2.242-31.222 14.732-28.847 3.003-24.74-1.999-41.712-16.578-49.391 3.197-3.16 3.604-7.138 4.638-10.914h-7.817c1.709-6.196 2.277-12.379-2.491-18.575-5.706 3.401-7.241 8.749-8.332 14.295-7.503-8.677-17.389-15.813-29.807-21.271-15.919-1.945-33.046 4.367-50.336 11.984-17.093-.192-30.547-5.695-37.022-21.528z"/><path d="M121.85 143.599c-.677.25-1.248.791-1.625 1.396-.64 1.056-.187 2.345.451 3.283.601.986 1.641 1.571 2.705 1.938.631.108 1.405.206 2.021-.103.579-.292 1.537-.439 1.565-1.235.014-.974-.694-1.757-1.225-2.511-.574-.625-.982-1.427-1.764-1.836-.577-.461-1.289-.731-1.969-.979l-.16.045v.002zM178.489 148.744c-.765 1.009-.258 2.668 1.061 2.869 1.228.042 1.533 1.33 2.455 1.732.779-.045 2.291-.079 2.205-1.169-.235-1.207-1.53-1.656-2.342-2.412-.946-.361-1.837-1.404-2.837-1.304-.159.124-.311.336-.543.284z" fill="#434343" stroke="none"/><path d="M196.888 252.243l-2.276 15.451 7.989 30.559c22.227 25.666 39.541 52.655 67.301 55.426 18.292 1.054 29.607-17.82 38.912-37.365-6.28-5.318-11.715-10.832-13.185-17.291-6.638 14.756-8.888 33.377-22.634 34.54-34.024 2.879-47.204-49.508-69.706-74.814l-6.399-6.505z" fill="#D9E2E4"/><path d="M193.067 246.843c.425-4.794 6.744.442 7.202 4.842-.031 20.621 2.905 32.479 5.119 49.115 2.041 7.684-4.691 3.608-4.512 2.767-7.771-17.706-9.85-36.736-7.809-56.724z" fill="#BE2323"/><path d="M96.307 291.406c.143 1.635 1.013 2.609 3.804 1.834 4.836-12.715 7.313-28.251 7.24-46.835.531-2.848-5.162-8.156-7.363.121-2.414 15.946-3.21 30.547-3.681 44.879v.001z" fill="#BE2323"/></g></svg>