<?xml version="1.0" encoding="UTF-8" standalone="no"?>
<svg width="300px" height="300px" viewBox="0 0 300 300" version="1.1" xmlns="http://www.w3.org/2000/svg" xmlns:xlink="http://www.w3.org/1999/xlink" xmlns:sketch="http://www.bohemiancoding.com/sketch/ns">
    <!-- Generator: Sketch 3.1.1 (8761) - http://www.bohemiancoding.com/sketch -->
    <title>Artboard 1</title>
    <desc>Created with Sketch.</desc>
    <defs>
        <ellipse id="path-1" cx="144" cy="143.5" rx="144" ry="143.5"></ellipse>
    </defs>
    <g id="Page-1" stroke="none" stroke-width="1" fill="none" fill-rule="evenodd" sketch:type="MSPage">
        <g id="Artboard-1" sketch:type="MSArtboardGroup">
            <g id="Oval-1-+-original" sketch:type="MSLayerGroup" transform="translate(6.000000, 6.000000)">
                <mask id="mask-2" sketch:name="Oval 1" fill="white">
                    <use xlink:href="#path-1"></use>
                </mask>
                <use id="Oval-1" stroke="#757575" stroke-width="2" fill="#EDEDED" sketch:type="MSShapeGroup" xlink:href="#path-1"></use>
                <g id="original" mask="url(#mask-2)">
                    <g transform="translate(-816.000000, -17.083333)" id="layer1">
                        <g>
                            <path d="M961.062926,249.954833 L929.964651,247.237431 C852.78744,316.88778 861.842777,399.75615 856.337554,466.129 C860.923303,463.3246 863.556891,458.275689 870.817577,458.547143 C881.831691,405.316126 879.826217,336.15654 910.576183,297.863862 L887.260937,446.073987 C937.819131,444.362886 996.51288,450.759193 1038.93267,440.937814 L1010.9544,307.401914 C1033.99399,333.620212 1051.46599,361.935768 1079.91593,364.775189 C1098.2077,365.828958 1109.50889,346.947364 1118.81369,327.403143 C1112.53323,322.085648 1107.09487,316.568336 1105.62459,310.109302 C1098.98626,324.864969 1096.7339,343.474562 1082.98735,344.637698 C1048.96347,347.516649 1035.80331,295.121424 1013.30098,269.814799 L991.087817,247.159941 L961.062926,249.954833 Z" id="path3883-8-9-6" stroke="#000000" stroke-width="0.40085837" fill="#BE2323" sketch:type="MSShapeGroup"></path>
                            <path d="M909.694114,268.034387 C854.436823,332.942584 861.317417,406.239138 856.351303,466.112634 C860.937051,463.308542 863.564469,458.265405 870.82512,458.537132 C881.276434,408.026157 880.013863,343.199657 906.129326,303.98632 L909.694114,268.034387 L909.694114,268.034387 Z" id="path4663" stroke="#000000" stroke-width="0.40085837" fill="#D9E2E4" sketch:type="MSShapeGroup"></path>
                            <path d="M910.683806,297.960065 L910.297269,299.415234 L887.276537,446.090865 C937.834731,444.380038 996.510103,450.776345 1038.92986,440.954693 L1036.78241,430.68286 C917.93088,445.42113 898.688674,432.529158 910.683806,297.960065 L910.683806,297.960065 Z M873.57576,443.394534 L869.710354,458.545572 C870.066514,458.518238 870.446469,458.518238 870.82704,458.545572 C871.844297,453.629193 872.744571,448.54574 873.57576,443.394534 L873.57576,443.394534 Z" id="path5353" fill-opacity="0.47940075" fill="#7F1717" sketch:type="MSShapeGroup"></path>
                            <path d="M961.062926,249.954833 L929.964651,247.237431 C852.78744,316.88778 861.842777,399.75615 856.337554,466.129 C860.923303,463.3246 863.556891,458.275689 870.817577,458.547143 C881.831691,405.316126 879.826217,336.15654 910.576183,297.863862 L887.260937,446.073987 C937.819131,444.362886 996.51288,450.759193 1038.93267,440.937814 L1010.9544,307.401914 C1033.99399,333.620212 1051.46599,361.935768 1079.91593,364.775189 C1098.2077,365.828958 1109.50889,346.947364 1118.81369,327.403143 C1112.53323,322.085648 1107.09487,316.568336 1105.62459,310.109302 C1098.98626,324.864969 1096.7339,343.474562 1082.98735,344.637698 C1048.96347,347.516649 1035.80331,295.121424 1013.30098,269.814799 L991.087817,247.159941 L961.062926,249.954833 Z" id="path5359" stroke="#000000" stroke-width="0.40085837" sketch:type="MSShapeGroup"></path>
                            <path d="M940.761017,235.054459 C932.901806,238.246811 930.348754,241.815806 929.48088,248.716318 C927.157989,268.739963 942.622457,295.60481 958.54896,322.647313 C969.767383,310.858365 983.286823,298.691208 989.725269,271.449985 C990.855154,255.832439 993.540891,240.624473 984.203246,233.541569 L940.761017,235.054459 Z" id="path3879-6-4-1" stroke="#000000" stroke-width="0.40085837" fill="#D9E2E4" sketch:type="MSShapeGroup"></path>
                            <path d="M1139.23725,284.191196 C1133.37569,285.689852 1134.63415,288.14922 1133.73977,294.591912 C1135.27378,294.736881 1136.90777,294.997808 1138.67894,295.405024 C1135.43856,300.984526 1129.67911,299.508799 1131.46344,305.933834 C1133.50008,308.227678 1144.98237,306.742463 1146.40975,294.206573 C1146.70838,288.897757 1144.48491,285.427602 1139.23725,284.191196 L1139.23725,284.191196 Z M1123.64674,285.004834 C1123.38651,285.060184 1123.13887,285.073372 1122.87363,285.133984 C1104.86561,292.548984 1096.41288,312.053125 1118.92231,326.863617 L1133.52504,331.486093 L1127.64099,327.93399 L1122.87363,315.350646 C1127.01175,311.82672 1128.92489,313.712033 1129.48779,304.094383 C1128.58971,299.690135 1126.94853,296.044969 1119.43773,298.230488 C1120.39395,297.462448 1121.46706,296.786129 1122.6589,296.218925 C1122.57696,292.351836 1122.76142,288.575937 1123.64674,285.005364 L1123.64674,285.004834 Z" id="path3885-8-9-7" stroke="#000000" stroke-width="0.40085837" fill="#F4DFC9" sketch:type="MSShapeGroup"></path>
                            <path d="M1037.33743,145.985106 C1055.11989,160.943464 1034.44478,178.184336 1023.34827,175.211272 L1020.64862,156.256935 L1030.8337,141.582731 L1037.33743,145.985106 Z" id="path3812-0-9-2" stroke="#000000" stroke-width="0.40085837" fill="#F4DFC9" sketch:type="MSShapeGroup"></path>
                            <path d="M960.642583,250.416875 C909.06096,217.700515 898.053531,185.372138 894.37824,151.365614 C891.740846,103.379522 908.13504,74.0335087 962.11512,71.3907238 C1012.64469,73.7485108 1033.47792,100.991344 1026.41609,151.610207 C1020.4524,219.496216 989.225623,230.742988 960.642583,250.416875 L960.642583,250.416875 Z" id="path2996-66-0-4" stroke="#000000" stroke-width="0.40085837" fill="#F4DFC9" sketch:type="MSShapeGroup"></path>
                            <path d="M900.578503,156.140174 C913.441474,134.827314 913.208846,122.064831 912.972377,109.304538 C932.267349,115.67219 961.66752,118.707877 1005.49704,114.440662 C1000.77034,156.783812 1009.01822,144.167292 1021.3127,171.372118 L1020.61851,100.467367 L905.214,91.4746422 L900.578503,156.140174 Z" id="path5308" fill="#E8BA89" sketch:type="MSShapeGroup"></path>
                            <path d="M893.124137,143.656497 C868.365943,138.597702 877.928297,172.967766 897.896503,170.029494 C901.171577,160.026242 899.099314,151.355333 893.124137,143.656497 L893.124137,143.656497 Z" id="path3814-1-2-9" stroke="#000000" stroke-width="0.40085837" fill="#F4DFC9" sketch:type="MSShapeGroup"></path>
                            <path d="M984.190971,233.558963 L940.769417,235.057093 C933.030171,238.200686 930.422846,241.714858 929.516743,248.410578 C939.82992,239.864866 951.819943,237.265804 964.0908,235.656185 C972.808731,237.408395 981.529303,238.982696 990.633291,246.698695 C989.995783,241.213284 988.23312,236.625333 984.190971,233.558963 L984.190971,233.558963 Z" id="path4072-8-2-1" stroke="#000000" stroke-width="0.40085837" fill="#6B3C36" sketch:type="MSShapeGroup"></path>
                            <path d="M899.452354,150.826615 L894.427303,151.768347 C898.144594,185.633073 909.269006,217.830191 960.654823,250.422147 C986.383509,232.712908 1014.21651,221.809036 1023.87593,170.300709 L1021.25602,170.942499 C1006.6104,190.446377 991.964743,194.329545 977.31912,190.84463 L946.266857,191.957685 C909.694971,197.540088 906.312994,165.635001 899.452354,150.826615 L899.452354,150.826615 Z" id="path3777-4-1-5" stroke="#000000" stroke-width="0.40085837" fill="#917C6F" sketch:type="MSShapeGroup"></path>
                            <path d="M897.026023,158.688891 C897.026023,158.688891 895.945851,161.46006 895.823451,161.770546 C900.785109,192.001175 914.338183,221.04574 960.633634,250.409232 C986.282229,232.755339 1014.02685,221.854898 1023.76886,170.758529 C1009.17326,198.753824 992.31816,218.190493 961.284857,234.493319 C930.325714,221.674881 908.780297,194.087853 898.27152,160.829074 L897.026023,158.688891 Z" id="path5310" fill="#64554C" sketch:type="MSShapeGroup"></path>
                            <path d="M946.653463,212.753052 C953.783589,221.525962 971.267417,218.220802 976.717817,213.975751 L963.219497,203.826218 L948.126,207.249988 L946.653463,212.753052 Z" id="path4102-9-5-7" stroke="#000000" stroke-width="0.40085837" fill="#F4DFC9" sketch:type="MSShapeGroup"></path>
                            <path d="M899.452354,150.826615 L894.427303,151.768347 C898.144594,185.633073 909.269006,217.830191 960.654823,250.422147 C986.383509,232.712908 1014.21651,221.809036 1023.87593,170.300709 L1021.25602,170.942499 C1006.6104,190.446377 991.964743,194.329545 977.31912,190.84463 L946.266857,191.957685 C909.694971,197.540088 906.312994,165.635001 899.452354,150.826615 L899.452354,150.826615 Z" id="path5315" stroke="#000000" stroke-width="0.40085837" sketch:type="MSShapeGroup"></path>
                            <path d="M906.226423,98.2602378 C909.479623,106.410385 908.805223,116.517275 908.482491,126.449255 C907.596137,134.865663 904.42656,146.837489 896.161097,166.743836 C890.002491,138.91865 895.122274,124.632394 899.805463,89.4404921 L906.226423,98.2602378 Z" id="path3771-6-4-3" stroke="#000000" stroke-width="0.40085837" fill="#82604A" sketch:type="MSShapeGroup"></path>
                            <path d="M889.488171,51.3167992 C887.823909,70.754971 883.837269,90.4738424 919.423714,105.886726 C929.818594,110.333511 978.55992,112.644172 1014.16941,108.026858 C1009.74737,118.131216 1009.21543,128.548349 1009.65977,139.05668 C1011.3359,159.064741 1016.24585,146.952142 1022.50155,175.564979 C1028.72602,160.454542 1024.74398,144.342673 1037.2331,146.718093 C1040.23598,121.978328 1035.234,105.006323 1020.65475,97.3268045 C1023.85128,94.1665826 1024.2588,90.1885781 1025.29323,86.4127377 L1017.47654,86.4127377 C1019.18571,80.2169305 1019.75314,74.0333788 1014.98547,67.8375716 C1009.27923,71.2381697 1007.74478,76.5861277 1006.65333,82.1327375 C999.150274,73.4559519 989.264331,66.3196491 976.846663,60.8612576 C960.927531,58.9161663 943.800206,65.2280753 926.510297,72.8452603 C909.41736,72.6536537 895.963029,67.1501827 889.488171,51.3167992 L889.488171,51.3167992 Z" id="path3766-3-4-3" stroke="#000000" stroke-width="0.40085837" fill="#82604A" sketch:type="MSShapeGroup"></path>
                            <path d="M975.981531,193.064941 C983.752731,205.679903 1001.25703,200.249053 999.174069,185.361068 C1004.83776,194.314259 1012.49417,213.29047 987.393737,215.443308 C975.489909,216.336281 966.740366,213.161323 960.397166,206.883362 C963.008606,207.812706 947.677371,215.567186 936.100217,214.220343 C917.334377,212.789952 915.356366,187.126983 927.485177,182.13524 C916.862949,195.805798 937.448846,207.893886 945.793714,192.338544 L975.981531,193.064941 Z" id="path3773-7-4-4" stroke="#000000" stroke-width="0.40085837" fill="#65391C" sketch:type="MSShapeGroup"></path>
                            <path d="M947.941886,182.365072 C930.796251,199.46994 986.611406,205.948743 972.79104,182.425684" id="path3816-88-2-2" stroke="#000000" stroke-width="0.40085837" fill="#F4DFC9" sketch:type="MSShapeGroup"></path>
                            <path d="M912.969086,153.016613 C914.304789,147.901254 937.957714,144.127625 939.168034,142.866605 C937.47192,142.850888 936.483737,138.218424 937.511417,135.77424 C937.821017,135.146575 940.438766,134.01191 943.094777,135.28495 C943.989806,137.69479 944.181669,140.805333 943.278891,145.006736 C933.731143,149.963688 923.947234,148.220966 912.969086,153.016613 L912.969086,153.016613 Z" id="path3818-2-5-2" stroke="#000000" stroke-width="0.40085837" fill="#502D16" sketch:type="MSShapeGroup"></path>
                            <path d="M979.96968,138.403317 C979.990251,141.517865 979.5384,144.675166 981.258171,147.635841 C985.254137,150.506903 993.63168,151.69112 1004.8188,151.793651 L1004.26659,147.758137 C992.128903,146.328009 990.124629,144.805894 982.730674,144.456533 C981.945291,142.573171 980.900091,140.431065 979.96968,138.403317 L979.96968,138.403317 Z" id="path3820-9-0-0" stroke="#000000" stroke-width="0.40085837" fill="#502D16" sketch:type="MSShapeGroup"></path>
                            <path d="M994.471851,163.479529 C994.073863,166.37036 992.090366,167.816037 989.504229,167.565121 C986.773611,167.300227 984.58128,165.735684 984.53664,163.479529 C984.488297,161.029653 986.592343,158.72289 989.504229,159.39394 C992.177211,160.009901 994.779566,161.243932 994.471851,163.479529 L994.471851,163.479529 Z" id="path3822-1-4-1" stroke="#000000" stroke-width="0.40085837" fill="#100A03" sketch:type="MSShapeGroup"></path>
                            <path d="M936.769577,159.523617 C937.837714,162.950017 934.768046,164.611822 931.780286,164.322424 C929.037703,164.057017 927.224846,162.08762 927.224846,159.437165 C927.224846,156.786709 929.180366,153.814965 931.780286,154.724543 C933.874217,155.457264 936.090823,157.346267 936.769577,159.523617 L936.769577,159.523617 Z" id="path3825-3-2-2" stroke="#000000" stroke-width="0.40085837" fill="#100A03" sketch:type="MSShapeGroup"></path>
                            <path d="M951.173451,205.22261 C948.090137,208.702256 945.029691,211.558292 939.893314,214.128623 L947.095234,213.350566 C949.454091,210.513765 950.900571,208.289242 951.173451,205.22261 L951.173451,205.22261 Z" id="path3830-0-9-4" fill="#341D0E" sketch:type="MSShapeGroup"></path>
                            <path d="M970.6968,205.006218 C972.59496,211.200628 973.663611,212.573035 974.905166,214.950167 C975.622971,214.770929 988.474594,215.871608 987.790526,215.771715 C985.759029,218.249003 969.509589,207.115303 970.6968,205.006218 L970.6968,205.006218 Z" id="path3832-7-5-1" fill="#341D0E" sketch:type="MSShapeGroup"></path>
                            <path d="M970.812549,60.505832 C956.633349,60.519157 941.617749,66.1672248 926.489074,72.8322394 C914.809269,72.7007319 904.843371,70.1085138 897.627291,63.4162478 L900.891429,68.4666312 L910.769726,76.5129871 L924.212777,82.3766431 L936.28152,85.6721855 L968.020903,88.3686598 L981.807566,90.208979 C995.338354,93.9840062 1008.60398,98.1008572 1018.27135,106.858191 C1029.40862,115.289909 1027.92069,133.461919 1029.54915,149.229644 L1037.60043,146.143509 C1040.31305,137.659946 1036.11137,101.442627 1020.63357,97.313787 C1023.83009,94.1535617 1024.23758,90.1756904 1025.27208,86.3997168 L1017.45531,86.3997168 C1019.16453,80.2040667 1019.73195,74.0203579 1014.96425,67.8247078 C1009.25805,71.2251522 1007.72362,76.5731067 1006.63214,82.1197166 C999.129051,73.4430882 989.243143,66.3066282 976.82544,60.8482367 C974.835566,60.6052433 972.838183,60.5044619 970.812549,60.505832 L970.812549,60.505832 Z" id="path5451" fill="#A0765A" sketch:type="MSShapeGroup"></path>
                            <path d="M888.698846,51.2212043 C890.616171,73.2748788 897.656571,91.9249212 928.439657,94.8015735" id="path3834-6-5-0" stroke="#000000" stroke-width="0.40085837" sketch:type="MSShapeGroup"></path>
                            <path d="M938.157909,98.6061719 C948.567531,103.844667 963.947794,104.852768 980.154754,101.719059 C989.16864,99.9762313 1006.0559,108.136554 1016.07765,107.253123" id="path3836-3-4-3" stroke="#000000" stroke-width="0.40085837" sketch:type="MSShapeGroup"></path>
                            <path d="M891.996103,56.7551862 C923.374629,106.570265 971.8776,69.885402 1018.33368,107.08009" id="path3838-6-0-7" stroke="#000000" stroke-width="0.40085837" sketch:type="MSShapeGroup"></path>
                            <path d="M927.745474,71.6279635 C957.467863,71.9811751 987.031817,64.9162191 1017.63953,106.734313" id="path3840-1-3-3" stroke="#000000" stroke-width="0.40085837" sketch:type="MSShapeGroup"></path>
                            <path d="M1018.50723,105.869568 C1016.84691,131.935325 1023.41863,150.458407 1022.49867,174.525992" id="path3842-5-4-9" stroke="#000000" stroke-width="0.40085837" sketch:type="MSShapeGroup"></path>
                            <path d="M1017.46598,106.042441 C1029.45079,114.161596 1027.98178,131.097066 1028.57259,146.682775" id="path3844-4-1-5" stroke="#000000" stroke-width="0.40085837" sketch:type="MSShapeGroup"></path>
                            <path d="M958.490983,322.520008 L943.49568,267.649312 L979.83648,267.649312 C975.333051,288.542464 968.084229,306.699239 958.490983,322.520008 L958.490983,322.520008 Z" id="path5383" fill="#B6C8CB" sketch:type="MSShapeGroup"></path>
                            <path d="M960.519874,250.172283 C958.828491,274.326582 957.332674,298.350676 957.5748,321.220342" id="path4064-5-4-0" stroke="#000000" stroke-width="0.40085837" sketch:type="MSShapeGroup"></path>
                            <path d="M962.97408,248.827281 C962.310789,272.164785 962.007566,295.286681 964.56936,316.695904" id="path4066-4-6-3" stroke="#000000" stroke-width="0.40085837" sketch:type="MSShapeGroup"></path>
                            <path d="M938.063589,285.757591 C951.390309,287.63236 966.098743,288.933601 983.344251,289.18162" id="path4068-1-9-6" stroke="#000000" stroke-width="0.40085837" sketch:type="MSShapeGroup"></path>
                            <path d="M946.039851,301.532224 L977.085943,301.899113" id="path4070-2-8-2" stroke="#000000" stroke-width="0.40085837" sketch:type="MSShapeGroup"></path>
                            <path d="M943.36416,295.236603 C942.694354,280.212614 942.998126,266.805098 943.7112,254.077328" id="path4083-0-5-0" stroke="#000000" stroke-width="0.40085837" sketch:type="MSShapeGroup"></path>
                            <path d="M965.999794,258.732492 C971.272937,256.017202 976.85832,253.593678 984.713314,253.290576 C986.380869,259.934106 988.400606,266.176223 985.63368,277.870011 C975.993463,275.165787 970.06608,272.667148 966.306549,270.288434 L965.999794,258.732492 Z" id="path3022-0-6-2" stroke="#000000" stroke-width="0.40085837" fill="#B02300" sketch:type="MSShapeGroup"></path>
                            <path d="M956.182834,258.671344 C948.616971,254.025668 940.820709,252.594488 932.92896,252.495914 C931.06632,252.495914 932.977989,272.917539 935.444571,272.978687 C935.396229,274.724043 959.21928,272.11945 959.578491,270.061499 L956.182834,258.671344 Z" id="path3024-1-6-8" stroke="#000000" stroke-width="0.40085837" fill="#B02300" sketch:type="MSShapeGroup"></path>
                            <path d="M937.392034,272.861662 C936.496663,267.902603 935.25552,263.149917 936.71712,256.781288 C946.069131,256.337702 954.676491,259.851874 963.591017,261.73376 C969.687806,260.540315 976.086,257.694556 981.875074,258.187431 C984.09312,263.130941 983.753863,270.622639 983.777109,277.753249 L985.74048,277.692638 L986.906229,267.787171 L984.820114,253.296384 L976.353017,254.947119 L965.799806,258.432297 L955.307931,258.371685 L945.245589,253.724953 L932.422217,252.624288 L932.422217,263.201857 L934.937794,273.107328 C934.937794,273.107328 936.655749,273.779693 936.962537,273.718545 C937.269394,273.657934 937.392034,272.862469 937.392034,272.862469 L937.392034,272.861662 Z" id="path5344" fill="#DF2C00" sketch:type="MSShapeGroup"></path>
                            <path d="M986.657451,200.096448 C987.559166,203.461967 989.845543,205.72339 992.363554,207.80032 C990.171257,205.191771 987.62256,202.582961 987.945943,199.973889 L986.657451,200.096448 Z" id="path4085-6-7-1" fill="#341D0E" sketch:type="MSShapeGroup"></path>
                            <path d="M992.302183,199.301523 C992.47464,201.566373 993.773966,203.028922 995.063211,204.498584 C994.010537,202.440107 993.295714,200.381893 993.222549,198.32315 L992.302183,199.301523 Z" id="path4087-0-2-8" fill="#341D0E" sketch:type="MSShapeGroup"></path>
                            <path d="M994.879166,197.283896 C995.15208,198.75804 995.758766,200.190539 997.333406,201.502591 C996.612309,199.86925 995.685703,198.276499 995.738126,196.488971 L994.879166,197.283896 Z" id="path4089-7-7-3" fill="#341D0E" sketch:type="MSShapeGroup"></path>
                            <path d="M978.190354,229.13943 C972.244114,235.381547 966.205714,241.165051 960.888,250.539172 L965.79648,246.992839 C969.927771,241.041703 974.059063,235.090566 978.190354,229.13943 L978.190354,229.13943 Z" id="path4104-7-7-1" stroke="#000000" stroke-width="0.40085837" sketch:type="MSShapeGroup"></path>
                            <path d="M961.072046,235.681489 L960.82656,250.416875 L962.544514,249.988832 L961.072046,235.681489 Z" id="path4106-7-1-7" stroke="#000000" stroke-width="0.40085837" sketch:type="MSShapeGroup"></path>
                            <path d="M934.889451,273.18928 L935.930674,273.49186 C939.694869,266.697302 943.28856,259.715347 949.293326,255.376731 L945.041589,253.561001 L934.065154,271.546454 L934.889451,273.18928 Z" id="path5340" fill="#DF2C00" sketch:type="MSShapeGroup"></path>
                            <path d="M945.215863,253.822195 C940.793486,259.265957 937.355211,265.245031 934.196057,271.375395" id="path4591-8-8" stroke="#000000" stroke-width="0.40085837" sketch:type="MSShapeGroup"></path>
                            <path d="M952.938446,256.934949 C949.333063,262.343396 946.053737,267.724694 943.827566,273.018224" id="path4593-6-9" stroke="#000000" stroke-width="0.40085837" sketch:type="MSShapeGroup"></path>
                            <path d="M965.999794,258.732492 C971.272937,256.017202 976.85832,253.593678 984.713314,253.290576 C986.380869,259.934106 988.400606,266.176223 985.63368,277.870011 C975.993463,275.165787 970.06608,272.667148 966.306549,270.288434 L965.999794,258.732492 Z" id="path5346" stroke="#000000" stroke-width="0.40085837" sketch:type="MSShapeGroup"></path>
                            <path d="M976.62672,254.254711 C972.818434,258.360335 969.856663,262.735322 967.255543,267.224965" id="path4595-0-5" stroke="#000000" stroke-width="0.40085837" sketch:type="MSShapeGroup"></path>
                            <path d="M985.217006,255.032768 C980.80296,259.78598 976.763451,264.837816 973.503017,270.510887" id="path4597-1-5" stroke="#000000" stroke-width="0.40085837" sketch:type="MSShapeGroup"></path>
                            <path d="M967.51584,267.484318 C974.172857,270.05702 979.878377,273.482895 985.39056,277.082199" id="path4599-2-5" stroke="#000000" stroke-width="0.40085837" sketch:type="MSShapeGroup"></path>
                            <path d="M955.281223,264.890268 C951.521554,267.497496 948.172869,268.979021 944.868789,270.33772" id="path4601-6-6" stroke="#000000" stroke-width="0.40085837" sketch:type="MSShapeGroup"></path>
                            <path d="M890.841326,303.994753 L883.53384,305.278863 C881.768606,305.394824 880.256366,306.517903 879.306446,309.882896 L852.187131,390.921812 C850.5576,396.502117 852.475817,401.882342 856.868571,405.088678 L891.270823,421.737582 L892.859931,412.578524 L877.398274,377.097329 L891.786206,311.570531 L890.841326,303.994753 Z" id="path5420" stroke="#000000" stroke-width="0.40085837" fill="#DCE1E1" sketch:type="MSShapeGroup"></path>
                            <path d="M890.841326,303.909357 C889.01184,303.975264 887.24856,305.419083 886.074,308.874214 L859.746171,387.797202 C856.929154,394.977873 859.573029,399.429824 865.887909,402.905804 L891.743246,415.403185 L907.333783,317.134484 L895.007417,305.96388 C893.722149,304.642344 892.264286,303.858489 890.841326,303.909357 L890.841326,303.909357 Z" id="path5410" stroke="#000000" stroke-width="0.40085837" fill="#F3F5F5" sketch:type="MSShapeGroup"></path>
                            <path d="M947.920697,182.357429 C930.775063,199.462561 986.608594,205.965085 972.788229,182.441786 L972.015154,182.441786 C980.5296,200.517381 938.024263,195.809502 948.264274,182.357429 L947.920697,182.357429 L947.920697,182.357429 Z" id="path5335" fill="#E7BA8B" sketch:type="MSShapeGroup"></path>
                            <path d="M947.941886,182.365072 C930.796251,199.46994 986.611406,205.948743 972.79104,182.425684" id="path5338" stroke="#000000" stroke-width="0.40085837" sketch:type="MSShapeGroup"></path>
                            <path d="M956.182834,258.671344 C948.616971,254.025668 940.820709,252.594488 932.92896,252.495914 C931.06632,252.495914 932.977989,272.917539 935.444571,272.978687 C935.396229,274.724043 959.21928,272.11945 959.578491,270.061499 L956.182834,258.671344 Z" id="path5342" stroke="#000000" stroke-width="0.40085837" sketch:type="MSShapeGroup"></path>
                            <path d="M961.214023,251.762137 C958.023874,252.944508 956.855211,256.141606 955.569291,259.221414 C955.286091,263.909261 954.813806,268.652722 957.225909,272.55065 C956.25216,275.053242 965.299474,278.736891 966.981497,272.611262 C967.545154,271.255197 967.863291,255.648458 966.67464,256.286295 C965.197303,252.385993 963.159771,252.393902 961.213954,251.761597 L961.214023,251.762137 Z" id="path3020-4-0-4" stroke="#000000" stroke-width="0.40085837" fill="#B02300" sketch:type="MSShapeGroup"></path>
                            <path d="M890.368903,303.952055 C888.709817,304.231436 887.148034,305.714809 886.074,308.874214 L859.746171,387.797202 C856.929154,394.977873 859.573029,399.429824 865.887909,402.905804 L891.743246,415.403185 L892.430434,411.080658 C884.187189,405.122674 874.495989,403.493027 868.293051,391.435234 C872.693246,361.927329 880.410583,332.808446 890.368903,303.952055 L890.368903,303.952055 Z" id="path5427" fill="#FFFFFF" sketch:type="MSShapeGroup"></path>
                            <path d="M884.38056,304.961789 L855.052423,392.27365 C853.958229,395.485795 854.882366,399.313863 858.048377,402.423473 L891.865989,419.176449" id="path5425" stroke="#000000" stroke-width="0.40085837" sketch:type="MSShapeGroup"></path>
                            <path d="M890.841326,303.909357 C889.01184,303.975264 887.24856,305.419083 886.074,308.874214 L859.746171,387.797202 C856.929154,394.977873 859.573029,399.429824 865.887909,402.905804 L891.743246,415.403185 L907.333783,317.134484 L895.007417,305.96388 C893.722149,304.642344 892.264286,303.858489 890.841326,303.909357 L890.841326,303.909357 Z" id="path5432" stroke="#000000" stroke-width="0.40085837" sketch:type="MSShapeGroup"></path>
                            <path d="M889.488171,51.3167992 C887.823909,70.754971 883.837269,90.4738424 919.423714,105.886726 C929.818594,110.333511 978.55992,112.644172 1014.16941,108.026858 C1009.74737,118.131216 1009.21543,128.548349 1009.65977,139.05668 C1011.3359,159.064741 1016.24585,146.952142 1022.50155,175.564979 C1028.72602,160.454542 1024.74398,144.342673 1037.2331,146.718093 C1040.23598,121.978328 1035.234,105.006323 1020.65475,97.3268045 C1023.85128,94.1665826 1024.2588,90.1885781 1025.29323,86.4127377 L1017.47654,86.4127377 C1019.18571,80.2169305 1019.75314,74.0333788 1014.98547,67.8375716 C1009.27923,71.2381697 1007.74478,76.5861277 1006.65333,82.1327375 C999.150274,73.4559519 989.264331,66.3196491 976.846663,60.8612576 C960.927531,58.9161663 943.800206,65.2280753 926.510297,72.8452603 C909.41736,72.6536537 895.963029,67.1501827 889.488171,51.3167992 L889.488171,51.3167992 Z" id="path5456" stroke="#000000" stroke-width="0.40085837" sketch:type="MSShapeGroup"></path>
                            <path d="M931.84992,154.682108 C931.17336,154.932481 930.6024,155.473606 930.224777,156.077973 C929.584389,157.133566 930.038263,158.422685 930.676114,159.360994 C931.276971,160.346743 932.317474,160.931868 933.381463,161.299282 C934.012217,161.407351 934.786594,161.504863 935.402331,161.196509 C935.981143,160.904213 936.939703,160.757402 936.967406,159.961685 C936.98112,158.987531 936.272949,158.204202 935.742617,157.450923 C935.168434,156.825472 934.761051,156.023693 933.978994,155.614632 C933.402069,155.153386 932.689886,154.883756 932.009863,154.635474 C931.812377,154.661782 931.901863,154.545854 931.849749,154.680266 L931.849714,154.680266 L931.84992,154.682108 Z" id="path4624" fill="#434343" sketch:type="MSShapeGroup"></path>
                            <path d="M988.489234,159.826982 C987.724354,160.836191 988.231406,162.495098 989.55072,162.6962 C990.779211,162.738362 991.083463,164.025909 992.00592,164.428645 C992.785131,164.383852 994.296651,164.349583 994.211109,163.259714 C993.976251,162.052302 992.680869,161.603707 991.868983,160.847261 C990.922731,160.486433 990.032469,159.443755 989.031771,159.542856 C988.872686,159.666744 988.7208,159.878373 988.489234,159.826986 L988.489234,159.826982 Z" id="path4647" fill="#434343" sketch:type="MSShapeGroup"></path>
                            <path d="M1006.88794,263.326508 L1004.61161,278.777214 L1012.60015,309.336516 C1034.82682,335.002117 1052.14162,361.991904 1079.90143,364.762548 C1098.1932,365.816282 1109.50848,346.942068 1118.81335,327.397881 C1112.53286,322.080352 1107.09816,316.565435 1105.62795,310.106667 C1098.98959,324.862338 1096.74034,343.483274 1082.99376,344.646376 C1048.96992,347.525088 1035.78967,295.138555 1013.28734,269.83193 L1006.88794,263.326508 L1006.88794,263.326508 Z" id="path4656" stroke="#000000" stroke-width="0.40085837" fill="#D9E2E4" sketch:type="MSShapeGroup"></path>
                            <path d="M1003.06666,257.925971 C1003.49157,253.132432 1009.81035,258.367715 1010.26862,262.768269 C1010.23776,283.389154 1013.17354,295.24741 1015.38806,311.882859 C1017.42922,319.56671 1010.69733,315.490599 1010.87599,314.649812 C1003.10517,296.943477 1001.02639,277.913761 1003.06666,257.925971 L1003.06666,257.925971 Z" id="path4654" stroke="#000000" stroke-width="0.40085837" fill="#BE2323" sketch:type="MSShapeGroup"></path>
                            <path d="M906.307234,302.489243 C906.450549,304.123903 907.32,305.098056 910.111303,304.323426 C914.947029,291.608304 917.423931,276.072728 917.35128,257.488183 C917.88192,254.639787 912.189669,249.332278 909.988594,257.609406 C907.574331,273.555095 906.778903,288.15632 906.307234,302.4887 L906.307234,302.489243 Z" id="path4661" stroke="#000000" stroke-width="0.40085837" fill="#BE2323" sketch:type="MSShapeGroup"></path>
                        </g>
                    </g>
                </g>
            </g>
        </g>
    </g>
</svg>